# xmcd
#
# Track frame offsets: 
#        150
#        13372
#        24372
#        36482
#        48312
#        61390
#        76315
#        88947
#        100977
#        114862
#        124427
#        134760
#        147377
#
# Disc length: 2169 seconds
#
# Revision: 3
# Processed by: cddbd v1.5.2PL0 Copyright (c) Steve Scherf et al.
# Submitted via: ExactAudioCopy v0.95b4
#
DISCID=bd08770d
DTITLE=Hank Thompson - Live At The Golden Nugget
DYEAR=1961
DGENRE=Country
TTITLE0=Honky Tonk Girl
TTITLE1=Guess I'm Getting Over You
TTITLE2=I'll Step Aside
TTITLE3=Orange Blossom Special
TTITLE4=I Didn't Mean To Fall In Love
TTITLE5=John Henry
TTITLE6=Nine Pound Hammer
TTITLE7=She's Just A Whole Lot Like You
TTITLE8=Have I Told You Lately That I Love You
TTITLE9=Steel Guitar Rag
TTITLE10=Just One Step Away
TTITLE11=Lost Highway
TTITLE12=A Six Pack To Go
EXTD=
EXTT0=
EXTT1=
EXTT2=
EXTT3=
EXTT4=
EXTT5=
EXTT6=
EXTT7=
EXTT8=
EXTT9=
EXTT10=
EXTT11=
EXTT12=
PLAYORDER=
